<mxfile host="Electron" modified="2024-01-31T17:23:56.224Z" agent="Mozilla/5.0 (Windows NT 10.0; Win64; x64) AppleWebKit/537.36 (KHTML, like Gecko) draw.io/22.1.16 Chrome/120.0.6099.109 Electron/28.1.0 Safari/537.36" etag="8OdE5wPlsONMdIw8MhbC" version="22.1.16" type="device">
  <diagram name="Страница — 1" id="x3ASPkyUIjZy-x1FBZUD">
    <mxGraphModel dx="6197" dy="-2767" grid="1" gridSize="10" guides="1" tooltips="1" connect="1" arrows="1" fold="1" page="1" pageScale="1" pageWidth="827" pageHeight="1169" math="0" shadow="0">
      <root>
        <mxCell id="0" />
        <mxCell id="1" parent="0" />
        <mxCell id="8_T74Xt0qUnq9rnjdWRC-136" value="Создание непися (Конструктор)" style="swimlane;whiteSpace=wrap;html=1;" vertex="1" parent="1">
          <mxGeometry x="-4920" y="3520" width="440" height="1150" as="geometry" />
        </mxCell>
        <mxCell id="8_T74Xt0qUnq9rnjdWRC-137" style="edgeStyle=orthogonalEdgeStyle;rounded=0;orthogonalLoop=1;jettySize=auto;html=1;exitX=0.5;exitY=1;exitDx=0;exitDy=0;entryX=0.25;entryY=0;entryDx=0;entryDy=0;" edge="1" parent="8_T74Xt0qUnq9rnjdWRC-136" source="8_T74Xt0qUnq9rnjdWRC-138" target="8_T74Xt0qUnq9rnjdWRC-140">
          <mxGeometry relative="1" as="geometry" />
        </mxCell>
        <mxCell id="8_T74Xt0qUnq9rnjdWRC-138" value="Множители" style="ellipse;whiteSpace=wrap;html=1;aspect=fixed;" vertex="1" parent="8_T74Xt0qUnq9rnjdWRC-136">
          <mxGeometry x="40" y="40" width="80" height="80" as="geometry" />
        </mxCell>
        <mxCell id="8_T74Xt0qUnq9rnjdWRC-139" style="edgeStyle=orthogonalEdgeStyle;rounded=0;orthogonalLoop=1;jettySize=auto;html=1;exitX=0.25;exitY=1;exitDx=0;exitDy=0;entryX=0.25;entryY=0;entryDx=0;entryDy=0;" edge="1" parent="8_T74Xt0qUnq9rnjdWRC-136" source="8_T74Xt0qUnq9rnjdWRC-140" target="8_T74Xt0qUnq9rnjdWRC-142">
          <mxGeometry relative="1" as="geometry" />
        </mxCell>
        <mxCell id="8_T74Xt0qUnq9rnjdWRC-140" value="ХП Актуальное *=&amp;nbsp;Множитель ХП" style="rounded=0;whiteSpace=wrap;html=1;" vertex="1" parent="8_T74Xt0qUnq9rnjdWRC-136">
          <mxGeometry x="40" y="140" width="120" height="60" as="geometry" />
        </mxCell>
        <mxCell id="8_T74Xt0qUnq9rnjdWRC-141" style="edgeStyle=orthogonalEdgeStyle;rounded=0;orthogonalLoop=1;jettySize=auto;html=1;exitX=0.25;exitY=1;exitDx=0;exitDy=0;entryX=0.25;entryY=0;entryDx=0;entryDy=0;" edge="1" parent="8_T74Xt0qUnq9rnjdWRC-136" source="8_T74Xt0qUnq9rnjdWRC-142" target="8_T74Xt0qUnq9rnjdWRC-144">
          <mxGeometry relative="1" as="geometry" />
        </mxCell>
        <mxCell id="8_T74Xt0qUnq9rnjdWRC-142" value="Броня *=&amp;nbsp;Множитель Брони" style="rounded=0;whiteSpace=wrap;html=1;" vertex="1" parent="8_T74Xt0qUnq9rnjdWRC-136">
          <mxGeometry x="40" y="220" width="120" height="60" as="geometry" />
        </mxCell>
        <mxCell id="8_T74Xt0qUnq9rnjdWRC-143" style="edgeStyle=orthogonalEdgeStyle;rounded=0;orthogonalLoop=1;jettySize=auto;html=1;exitX=0.25;exitY=1;exitDx=0;exitDy=0;entryX=0.25;entryY=0;entryDx=0;entryDy=0;" edge="1" parent="8_T74Xt0qUnq9rnjdWRC-136" source="8_T74Xt0qUnq9rnjdWRC-144" target="8_T74Xt0qUnq9rnjdWRC-146">
          <mxGeometry relative="1" as="geometry" />
        </mxCell>
        <mxCell id="8_T74Xt0qUnq9rnjdWRC-144" value="Скорость актуальная *=&amp;nbsp;Множитель Скорости" style="rounded=0;whiteSpace=wrap;html=1;" vertex="1" parent="8_T74Xt0qUnq9rnjdWRC-136">
          <mxGeometry x="40" y="300" width="120" height="60" as="geometry" />
        </mxCell>
        <mxCell id="8_T74Xt0qUnq9rnjdWRC-145" style="edgeStyle=orthogonalEdgeStyle;rounded=0;orthogonalLoop=1;jettySize=auto;html=1;exitX=0.25;exitY=1;exitDx=0;exitDy=0;entryX=0.25;entryY=0;entryDx=0;entryDy=0;" edge="1" parent="8_T74Xt0qUnq9rnjdWRC-136" source="8_T74Xt0qUnq9rnjdWRC-146" target="8_T74Xt0qUnq9rnjdWRC-152">
          <mxGeometry relative="1" as="geometry" />
        </mxCell>
        <mxCell id="8_T74Xt0qUnq9rnjdWRC-146" value="Высота прыжка *=&lt;br&gt;&amp;nbsp;Множитель Прыжка" style="rounded=0;whiteSpace=wrap;html=1;" vertex="1" parent="8_T74Xt0qUnq9rnjdWRC-136">
          <mxGeometry x="40" y="380" width="120" height="60" as="geometry" />
        </mxCell>
        <mxCell id="8_T74Xt0qUnq9rnjdWRC-147" style="edgeStyle=orthogonalEdgeStyle;rounded=0;orthogonalLoop=1;jettySize=auto;html=1;exitX=0.25;exitY=1;exitDx=0;exitDy=0;entryX=0.25;entryY=0;entryDx=0;entryDy=0;" edge="1" parent="8_T74Xt0qUnq9rnjdWRC-136" source="8_T74Xt0qUnq9rnjdWRC-148" target="8_T74Xt0qUnq9rnjdWRC-154">
          <mxGeometry relative="1" as="geometry" />
        </mxCell>
        <mxCell id="8_T74Xt0qUnq9rnjdWRC-148" value="Дроп *= Множитель Дропа" style="rounded=0;whiteSpace=wrap;html=1;fillColor=#fff2cc;strokeColor=#d6b656;" vertex="1" parent="8_T74Xt0qUnq9rnjdWRC-136">
          <mxGeometry x="40" y="622" width="120" height="60" as="geometry" />
        </mxCell>
        <mxCell id="8_T74Xt0qUnq9rnjdWRC-149" style="edgeStyle=orthogonalEdgeStyle;rounded=0;orthogonalLoop=1;jettySize=auto;html=1;exitX=0.25;exitY=1;exitDx=0;exitDy=0;entryX=0.25;entryY=0;entryDx=0;entryDy=0;" edge="1" parent="8_T74Xt0qUnq9rnjdWRC-136" source="8_T74Xt0qUnq9rnjdWRC-150" target="8_T74Xt0qUnq9rnjdWRC-148">
          <mxGeometry relative="1" as="geometry" />
        </mxCell>
        <mxCell id="8_T74Xt0qUnq9rnjdWRC-150" value="Приносимая экспа *= Множитель Экспы" style="rounded=0;whiteSpace=wrap;html=1;fillColor=#fff2cc;strokeColor=#d6b656;" vertex="1" parent="8_T74Xt0qUnq9rnjdWRC-136">
          <mxGeometry x="40" y="542" width="120" height="60" as="geometry" />
        </mxCell>
        <mxCell id="8_T74Xt0qUnq9rnjdWRC-151" style="edgeStyle=orthogonalEdgeStyle;rounded=0;orthogonalLoop=1;jettySize=auto;html=1;exitX=0.25;exitY=1;exitDx=0;exitDy=0;entryX=0.25;entryY=0;entryDx=0;entryDy=0;" edge="1" parent="8_T74Xt0qUnq9rnjdWRC-136" source="8_T74Xt0qUnq9rnjdWRC-152" target="8_T74Xt0qUnq9rnjdWRC-150">
          <mxGeometry relative="1" as="geometry" />
        </mxCell>
        <mxCell id="8_T74Xt0qUnq9rnjdWRC-152" value="Шанс уворота *=&amp;nbsp;&lt;br&gt;Множитель уворота" style="rounded=0;whiteSpace=wrap;html=1;" vertex="1" parent="8_T74Xt0qUnq9rnjdWRC-136">
          <mxGeometry x="40" y="462" width="120" height="60" as="geometry" />
        </mxCell>
        <mxCell id="8_T74Xt0qUnq9rnjdWRC-153" style="edgeStyle=orthogonalEdgeStyle;rounded=0;orthogonalLoop=1;jettySize=auto;html=1;exitX=0.25;exitY=1;exitDx=0;exitDy=0;entryX=0.25;entryY=0;entryDx=0;entryDy=0;" edge="1" parent="8_T74Xt0qUnq9rnjdWRC-136" source="8_T74Xt0qUnq9rnjdWRC-154" target="8_T74Xt0qUnq9rnjdWRC-156">
          <mxGeometry relative="1" as="geometry" />
        </mxCell>
        <mxCell id="8_T74Xt0qUnq9rnjdWRC-154" value="int i" style="rounded=0;whiteSpace=wrap;html=1;" vertex="1" parent="8_T74Xt0qUnq9rnjdWRC-136">
          <mxGeometry x="40" y="720" width="120" height="60" as="geometry" />
        </mxCell>
        <mxCell id="8_T74Xt0qUnq9rnjdWRC-155" style="edgeStyle=orthogonalEdgeStyle;rounded=0;orthogonalLoop=1;jettySize=auto;html=1;exitX=0.5;exitY=1;exitDx=0;exitDy=0;entryX=0.5;entryY=0;entryDx=0;entryDy=0;" edge="1" parent="8_T74Xt0qUnq9rnjdWRC-136" source="8_T74Xt0qUnq9rnjdWRC-156" target="8_T74Xt0qUnq9rnjdWRC-160">
          <mxGeometry relative="1" as="geometry" />
        </mxCell>
        <mxCell id="8_T74Xt0qUnq9rnjdWRC-156" value="Массив скиллов.i.урон *= множитель Урона" style="rounded=0;whiteSpace=wrap;html=1;" vertex="1" parent="8_T74Xt0qUnq9rnjdWRC-136">
          <mxGeometry x="40" y="820" width="120" height="60" as="geometry" />
        </mxCell>
        <mxCell id="8_T74Xt0qUnq9rnjdWRC-157" style="edgeStyle=orthogonalEdgeStyle;rounded=0;orthogonalLoop=1;jettySize=auto;html=1;exitX=0.5;exitY=1;exitDx=0;exitDy=0;" edge="1" parent="8_T74Xt0qUnq9rnjdWRC-136" source="8_T74Xt0qUnq9rnjdWRC-148" target="8_T74Xt0qUnq9rnjdWRC-148">
          <mxGeometry relative="1" as="geometry" />
        </mxCell>
        <mxCell id="8_T74Xt0qUnq9rnjdWRC-158" style="edgeStyle=orthogonalEdgeStyle;rounded=0;orthogonalLoop=1;jettySize=auto;html=1;exitX=0.5;exitY=1;exitDx=0;exitDy=0;entryX=0.5;entryY=0;entryDx=0;entryDy=0;" edge="1" parent="8_T74Xt0qUnq9rnjdWRC-136" source="8_T74Xt0qUnq9rnjdWRC-160" target="8_T74Xt0qUnq9rnjdWRC-164">
          <mxGeometry relative="1" as="geometry">
            <mxPoint x="109.58823529411802" y="1030" as="targetPoint" />
          </mxGeometry>
        </mxCell>
        <mxCell id="8_T74Xt0qUnq9rnjdWRC-159" value="Да" style="edgeLabel;html=1;align=center;verticalAlign=middle;resizable=0;points=[];" vertex="1" connectable="0" parent="8_T74Xt0qUnq9rnjdWRC-158">
          <mxGeometry x="0.1101" y="-4" relative="1" as="geometry">
            <mxPoint as="offset" />
          </mxGeometry>
        </mxCell>
        <mxCell id="8_T74Xt0qUnq9rnjdWRC-160" value="i == Массив скиллов.length" style="shape=rhombus;perimeter=rhombusPerimeter;whiteSpace=wrap;html=1;align=center;" vertex="1" parent="8_T74Xt0qUnq9rnjdWRC-136">
          <mxGeometry x="10" y="910" width="200" height="60" as="geometry" />
        </mxCell>
        <mxCell id="8_T74Xt0qUnq9rnjdWRC-161" style="edgeStyle=orthogonalEdgeStyle;rounded=0;orthogonalLoop=1;jettySize=auto;html=1;exitX=0;exitY=0.5;exitDx=0;exitDy=0;entryX=1;entryY=0.5;entryDx=0;entryDy=0;" edge="1" parent="8_T74Xt0qUnq9rnjdWRC-136" source="8_T74Xt0qUnq9rnjdWRC-162" target="8_T74Xt0qUnq9rnjdWRC-156">
          <mxGeometry relative="1" as="geometry" />
        </mxCell>
        <mxCell id="8_T74Xt0qUnq9rnjdWRC-162" value="i++" style="rounded=0;whiteSpace=wrap;html=1;" vertex="1" parent="8_T74Xt0qUnq9rnjdWRC-136">
          <mxGeometry x="190" y="820" width="120" height="60" as="geometry" />
        </mxCell>
        <mxCell id="8_T74Xt0qUnq9rnjdWRC-163" style="edgeStyle=orthogonalEdgeStyle;rounded=0;orthogonalLoop=1;jettySize=auto;html=1;exitX=1;exitY=0.5;exitDx=0;exitDy=0;" edge="1" parent="8_T74Xt0qUnq9rnjdWRC-136" source="8_T74Xt0qUnq9rnjdWRC-160" target="8_T74Xt0qUnq9rnjdWRC-162">
          <mxGeometry relative="1" as="geometry">
            <mxPoint x="220" y="860" as="targetPoint" />
          </mxGeometry>
        </mxCell>
        <mxCell id="8_T74Xt0qUnq9rnjdWRC-164" value="Алгоритм рандомизации инвентаря" style="rounded=0;whiteSpace=wrap;html=1;" vertex="1" parent="8_T74Xt0qUnq9rnjdWRC-136">
          <mxGeometry x="50" y="1030" width="120" height="60" as="geometry" />
        </mxCell>
      </root>
    </mxGraphModel>
  </diagram>
</mxfile>
